<?xml version="1.0" encoding="UTF-8" standalone="no"?>
<!-- Created with Inkscape (http://www.inkscape.org/) -->

<svg
   width="100.13892mm"
   height="126.00247mm"
   viewBox="0 0 100.13892 126.00247"
   version="1.1"
   id="svg1"
   xml:space="preserve"
   xmlns="http://www.w3.org/2000/svg"
   xmlns:svg="http://www.w3.org/2000/svg"><defs
     id="defs1" /><g
     id="layer1"
     transform="translate(-79.084444,-148.60464)"><path
       style="fill:#D8150E"
       d="m 117.24073,274.26284 c -10.78205,-1.67096 -15.3162,-7.21498 -12.85068,-15.71287 1.43831,-4.95745 10.66609,-5.87133 20.36196,-2.01657 12.61944,5.01707 31.02409,-6.9108 38.41082,-24.89366 6.36163,-15.48728 -17.23466,-28.49224 -36.2171,-19.96085 -10.32698,4.64132 -18.55411,-1.66504 -13.93752,-10.68354 1.78639,-3.48972 5.50447,-5.03568 14.02211,-5.83032 4.77644,-0.44562 5.59943,-0.84102 13.49374,-6.48296 20.26888,-14.48585 22.09198,-23.82417 4.7625,-24.39458 -14.84883,-0.48876 -32.82824,4.69069 -40.55419,11.68272 -2.87788,2.60449 -3.08803,3.48292 -3.49355,14.60274 -0.4106,11.25881 -0.78495,18.51362 -1.08336,20.99509 -0.14875,1.23693 -0.683973,5.40411 -1.189383,9.26042 -1.194959,9.11768 -1.458835,13.71991 -1.113923,19.42789 1.120253,18.53913 -0.757409,23.55658 -8.7872,23.48102 -5.778738,-0.0544 -8.975134,-4.28492 -9.826703,-13.006 -0.352864,-3.61376 -0.195943,-5.19182 1.513325,-15.21854 1.894759,-11.11483 2.178863,-13.13345 2.886213,-20.50723 0.687822,-7.17021 1.861017,-18.54224 2.683327,-26.01005 0.458541,-4.16425 0.457959,-4.19914 -0.123569,-7.40833 -1.138599,-6.28343 -0.40031,-11.49678 2.32806,-16.43937 1.992876,-3.6102 2.481682,-3.96214 6.622413,-4.76819 2.65369,-0.51657 7.24462,-1.91088 17.85938,-5.42407 18.00896,-5.96046 19.93658,-6.34128 32.14687,-6.35093 13.32149,-0.0105 23.11822,6.08182 25.45023,15.82687 2.44789,10.22927 -1.50825,17.81711 -15.7381,30.18558 -1.57058,1.36513 -2.7612,2.56157 -2.64584,2.65876 0.11537,0.0972 1.40038,0.55847 2.85559,1.02508 30.1269,9.66011 32.37735,37.9545 4.98309,62.65118 -9.80594,8.84032 -30.385,15.2376 -42.81851,13.31071 z"
       id="path1" /></g></svg>
